<?xml version="1.0" encoding="UTF-8" standalone="no" ?>
<!DOCTYPE svg PUBLIC "-//W3C//DTD SVG 1.1//EN" "http://www.w3.org/Graphics/SVG/1.1/DTD/svg11.dtd">
<svg xmlns="http://www.w3.org/2000/svg" xmlns:xlink="http://www.w3.org/1999/xlink" version="1.1" width="1080" height="1080" viewBox="0 0 1080 1080" xml:space="preserve">
<desc>Created with Fabric.js 5.2.4</desc>
<defs>
</defs>
<g transform="matrix(1 0 0 1 540 540)" id="9f1f54eb-65f6-45e4-aec4-da266f20b9dd"  >
<rect style="stroke: none; stroke-width: 1; stroke-dasharray: none; stroke-linecap: butt; stroke-dashoffset: 0; stroke-linejoin: miter; stroke-miterlimit: 4; fill: rgb(255,255,255); fill-rule: nonzero; opacity: 1; visibility: hidden;" vector-effect="non-scaling-stroke"  x="-540" y="-540" rx="0" ry="0" width="1080" height="1080" />
</g>
<g transform="matrix(1 0 0 1 540 540)" id="2f747cea-696c-48ea-b81d-88b2a7a26baa"  >
</g>
<g transform="matrix(25.71 0 0 25.71 540 540)"  >
<linearGradient id="SVGID_paint0_linear_148_587_3" gradientUnits="userSpaceOnUse" gradientTransform="matrix(1 0 0 1 0 0)"  x1="0.644288" y1="41.3134" x2="10.689" y2="-5.87452">
<stop offset="0%" style="stop-color:rgb(255,0,0);stop-opacity: 1"/>
<stop offset="100%" style="stop-color:rgb(22,21,21);stop-opacity: 1"/>
</linearGradient>
<path style="stroke: none; stroke-width: 1; stroke-dasharray: none; stroke-linecap: butt; stroke-dashoffset: 0; stroke-linejoin: miter; stroke-miterlimit: 4; fill: url(#SVGID_paint0_linear_148_587_3); fill-rule: nonzero; opacity: 1;"  transform=" translate(-20.98, -20.98)" d="M 40.8554 38.6446 L 31.0761 28.8672 C 33.9106 25.4643 35.324 21.0996 35.0223 16.6811 C 34.7206 12.2627 32.7271 8.1306 29.4565 5.14449 C 26.1858 2.15839 21.8899 0.548171 17.4623 0.648795 C 13.0347 0.74942 8.81629 2.55314 5.68469 5.68475 C 2.55308 8.81635 0.749359 13.0347 0.648734 17.4623 C 0.54811 21.8899 2.15833 26.1859 5.14443 29.4565 C 8.13054 32.7272 12.2626 34.7207 16.6811 35.0224 C 21.0995 35.324 25.4642 33.9106 28.8671 31.0762 L 38.6445 40.8555 C 38.7897 41.0007 38.962 41.1158 39.1517 41.1944 C 39.3414 41.2729 39.5447 41.3134 39.75 41.3134 C 39.9553 41.3134 40.1586 41.2729 40.3482 41.1944 C 40.5379 41.1158 40.7103 41.0007 40.8554 40.8555 C 41.0006 40.7103 41.1158 40.538 41.1943 40.3483 C 41.2729 40.1586 41.3133 39.9553 41.3133 39.75 C 41.3133 39.5447 41.2729 39.3414 41.1943 39.1517 C 41.1158 38.9621 41.0006 38.7897 40.8554 38.6446 Z M 3.81246 17.875 C 3.81246 15.0937 4.63721 12.3749 6.18242 10.0623 C 7.72762 7.74975 9.92389 5.94732 12.4935 4.88296 C 15.0631 3.81861 17.8906 3.54012 20.6184 4.08273 C 23.3463 4.62533 25.852 5.96465 27.8186 7.93133 C 29.7853 9.898 31.1246 12.4037 31.6673 15.1316 C 32.2099 17.8594 31.9314 20.6869 30.867 23.2565 C 29.8027 25.8261 28.0002 28.0224 25.6877 29.5676 C 23.3751 31.1128 20.6563 31.9375 17.875 31.9375 C 14.1466 31.9334 10.5722 30.4505 7.93584 27.8141 C 5.2995 25.1778 3.81659 21.6034 3.81246 17.875 Z" stroke-linecap="round" />
</g>
</svg>